<svg width="956" height="905" viewBox="0 0 956 905" fill="none" xmlns="http://www.w3.org/2000/svg">
<g opacity="0.5" filter="url(#filter0_f_3142_35740)">
<ellipse cx="477.998" cy="452.998" rx="360.001" ry="360" fill="#7155FF" fill-opacity="0.1"/>
</g>
<g opacity="0.5" filter="url(#filter1_f_3142_35740)">
<path d="M822.704 452.998C822.704 643.374 668.374 797.704 477.998 797.704C287.622 797.704 133.291 643.374 133.291 452.998C133.291 262.622 287.622 108.292 477.998 108.292C668.374 108.292 822.704 262.622 822.704 452.998Z" stroke="#7155FF" stroke-opacity="0.1" stroke-width="30.5883"/>
</g>
<g opacity="0.5" filter="url(#filter2_f_3142_35740)">
<ellipse cx="477.999" cy="452.999" rx="258.824" ry="258.824" fill="#4859F3" fill-opacity="0.1"/>
</g>
<g opacity="0.5" filter="url(#filter3_f_3142_35740)">
<ellipse cx="477.998" cy="452.999" rx="178.824" ry="178.824" fill="url(#paint0_radial_3142_35740)" fill-opacity="0.1"/>
</g>
<path d="M579.783 259.656C579.783 339.62 539.443 410.162 478 452.041C416.557 410.162 376.217 339.62 376.217 259.656C376.217 179.692 416.557 109.15 478 67.2703C539.443 109.15 579.783 179.692 579.783 259.656Z" stroke="white" stroke-opacity="0.2" stroke-width="1.5"/>
<path d="M579.783 646.343C579.783 726.307 539.443 796.849 478 838.729C416.557 796.849 376.217 726.307 376.217 646.343C376.217 566.38 416.557 495.837 478 453.958C539.443 495.837 579.783 566.38 579.783 646.343Z" stroke="white" stroke-opacity="0.2" stroke-width="1.5"/>
<path d="M284.655 351.215C364.619 351.215 435.161 391.555 477.041 452.998C435.161 514.441 364.619 554.781 284.655 554.781C204.691 554.781 134.149 514.441 92.269 452.998C134.149 391.555 204.691 351.215 284.655 351.215Z" stroke="white" stroke-opacity="0.2" stroke-width="1.5"/>
<path d="M671.344 351.215C751.308 351.215 821.85 391.555 863.73 452.998C821.85 514.441 751.308 554.781 671.344 554.781C591.38 554.781 520.838 514.441 478.958 452.998C520.838 391.555 591.38 351.215 671.344 351.215Z" stroke="white" stroke-opacity="0.2" stroke-width="1.5"/>
<path d="M317.587 304.64C394.826 325.337 452.524 382.56 477.074 452.748C420.719 501.258 342.14 521.966 264.9 501.27C187.661 480.574 129.963 423.351 105.413 353.162C161.769 304.652 240.348 283.944 317.587 304.64Z" stroke="white" stroke-opacity="0.2" stroke-width="1.5"/>
<path d="M691.1 404.728C768.339 425.424 826.037 482.648 850.587 552.836C794.232 601.346 715.653 622.054 638.413 601.358C561.174 580.662 503.476 523.439 478.926 453.25C535.282 404.74 613.861 384.032 691.1 404.728Z" stroke="white" stroke-opacity="0.2" stroke-width="1.5"/>
<path d="M638.411 304.64C561.172 325.337 503.474 382.56 478.924 452.748C535.279 501.258 613.858 521.966 691.098 501.27C768.337 480.574 826.035 423.351 850.585 353.162C794.229 304.652 715.65 283.944 638.411 304.64Z" stroke="white" stroke-opacity="0.2" stroke-width="1.5"/>
<path d="M264.9 404.726C187.661 425.422 129.963 482.646 105.413 552.834C161.768 601.344 240.347 622.052 317.587 601.356C394.826 580.66 452.524 523.437 477.074 453.248C420.718 404.738 342.139 384.03 264.9 404.726Z" stroke="white" stroke-opacity="0.2" stroke-width="1.5"/>
<path d="M361.45 268.18C430.701 308.162 471.622 378.368 477.17 452.519C410.179 484.791 328.918 484.455 259.667 444.473C190.416 404.491 149.495 334.285 143.948 260.134C210.938 227.862 292.199 228.198 361.45 268.18Z" stroke="white" stroke-opacity="0.2" stroke-width="1.5"/>
<path d="M696.332 461.526C765.583 501.507 806.504 571.714 812.051 645.865C745.061 678.136 663.8 677.801 594.549 637.819C525.298 597.837 484.377 527.631 478.829 453.479C545.82 421.208 627.081 421.544 696.332 461.526Z" stroke="white" stroke-opacity="0.2" stroke-width="1.5"/>
<path d="M594.546 268.178C525.295 308.16 484.374 378.366 478.827 452.517C545.817 484.789 627.079 484.453 696.329 444.471C765.58 404.489 806.501 334.283 812.049 260.132C745.058 227.86 663.797 228.196 594.546 268.178Z" stroke="white" stroke-opacity="0.2" stroke-width="1.5"/>
<path d="M259.665 461.524C190.414 501.506 149.493 571.712 143.946 645.863C210.936 678.135 292.198 677.799 361.448 637.817C430.699 597.835 471.621 527.629 477.168 453.478C410.178 421.206 328.916 421.542 259.665 461.524Z" stroke="white" stroke-opacity="0.2" stroke-width="1.5"/>
<path d="M413.258 244.313C469.801 300.856 491.157 379.261 477.324 452.321C404.263 466.155 325.858 444.799 269.315 388.256C212.772 331.713 191.416 253.307 205.249 180.247C278.309 166.414 356.715 187.77 413.258 244.313Z" stroke="white" stroke-opacity="0.2" stroke-width="1.5"/>
<path d="M686.685 517.746C743.228 574.289 764.584 652.695 750.751 725.755C677.691 739.588 599.285 718.232 542.742 661.689C486.199 605.146 464.843 526.741 478.676 453.681C551.736 439.847 630.142 461.203 686.685 517.746Z" stroke="white" stroke-opacity="0.2" stroke-width="1.5"/>
<path d="M542.741 244.311C486.198 300.854 464.842 379.259 478.676 452.319C551.736 466.153 630.142 444.797 686.685 388.254C743.228 331.711 764.584 253.305 750.75 180.245C677.69 166.412 599.284 187.768 542.741 244.311Z" stroke="white" stroke-opacity="0.2" stroke-width="1.5"/>
<path d="M269.312 517.742C212.769 574.285 191.413 652.691 205.246 725.751C278.306 739.584 356.712 718.228 413.255 661.685C469.798 605.142 491.154 526.737 477.321 453.677C404.261 439.843 325.855 461.199 269.312 517.742Z" stroke="white" stroke-opacity="0.2" stroke-width="1.5"/>
<path d="M469.474 234.666C509.456 303.917 509.791 385.178 477.52 452.168C403.369 446.621 333.162 405.7 293.18 336.449C253.198 267.198 252.863 185.937 285.134 118.947C359.285 124.494 429.492 165.415 469.474 234.666Z" stroke="white" stroke-opacity="0.2" stroke-width="1.5"/>
<path d="M662.818 569.547C702.8 638.798 703.136 720.059 670.864 787.049C596.713 781.502 526.506 740.581 486.524 671.33C446.542 602.079 446.207 520.818 478.478 453.828C552.629 459.375 622.836 500.296 662.818 569.547Z" stroke="white" stroke-opacity="0.2" stroke-width="1.5"/>
<path d="M486.523 234.666C446.541 303.917 446.205 385.178 478.477 452.168C552.628 446.621 622.834 405.7 662.816 336.449C702.798 267.198 703.134 185.937 670.862 118.947C596.711 124.494 526.505 165.415 486.523 234.666Z" stroke="white" stroke-opacity="0.2" stroke-width="1.5"/>
<path d="M293.18 569.547C253.198 638.798 252.862 720.059 285.134 787.049C359.285 781.502 429.491 740.581 469.473 671.33C509.455 602.079 509.791 520.818 477.519 453.828C403.368 459.375 333.162 500.296 293.18 569.547Z" stroke="white" stroke-opacity="0.2" stroke-width="1.5"/>
<path d="M526.272 239.9C546.968 317.139 526.26 395.718 477.75 452.073C407.561 427.523 350.338 369.826 329.642 292.586C308.946 215.347 329.654 136.768 378.164 80.4128C448.353 104.963 505.576 162.66 526.272 239.9Z" stroke="white" stroke-opacity="0.2" stroke-width="1.5"/>
<path d="M626.354 613.413C647.051 690.652 626.343 769.232 577.833 825.587C507.644 801.037 450.421 743.339 429.724 666.1C409.028 588.861 429.736 510.282 478.246 453.926C548.435 478.476 605.658 536.174 626.354 613.413Z" stroke="white" stroke-opacity="0.2" stroke-width="1.5"/>
<path d="M429.725 239.9C409.029 317.139 429.737 395.718 478.247 452.073C548.436 427.523 605.659 369.826 626.355 292.586C647.051 215.347 626.343 136.768 577.833 80.4128C507.644 104.963 450.421 162.66 429.725 239.9Z" stroke="white" stroke-opacity="0.2" stroke-width="1.5"/>
<path d="M329.642 613.413C308.946 690.652 329.654 769.232 378.164 825.587C448.353 801.037 505.576 743.339 526.273 666.1C546.969 588.861 526.261 510.282 477.751 453.926C407.562 478.476 350.339 536.174 329.642 613.413Z" stroke="white" stroke-opacity="0.2" stroke-width="1.5"/>
<path d="M341.706 550.333V511.667H254.999V463.4L329.967 355.667H367.318L287.014 472.2V482.333H341.706V438.333H375.055V550.333H341.706Z" fill="url(#paint1_linear_3142_35740)" fill-opacity="0.15"/>
<path d="M477.666 553C465.038 553 454.1 550.6 444.851 545.8C435.602 541 428.399 534.244 423.241 525.533C418.261 516.822 415.77 506.6 415.77 494.867V411.133C415.77 399.4 418.261 389.178 423.241 380.467C428.399 371.756 435.602 365 444.851 360.2C454.1 355.4 465.038 353 477.666 353C490.473 353 501.411 355.4 510.482 360.2C519.731 365 526.845 371.756 531.825 380.467C536.983 389.178 539.562 399.4 539.562 411.133V494.867C539.562 506.6 536.983 516.822 531.825 525.533C526.845 534.244 519.731 541 510.482 545.8C501.233 550.6 490.295 553 477.666 553ZM477.666 524.2C486.915 524.2 494.297 521.533 499.81 516.2C505.324 510.867 508.081 503.756 508.081 494.867V411.133C508.081 402.244 505.324 395.133 499.81 389.8C494.297 384.467 486.915 381.8 477.666 381.8C468.418 381.8 461.036 384.467 455.523 389.8C450.009 395.133 447.252 402.244 447.252 411.133V494.867C447.252 503.756 450.009 510.867 455.523 516.2C461.036 521.533 468.418 524.2 477.666 524.2ZM477.666 470.333C472.508 470.333 468.24 468.644 464.86 465.267C461.659 461.889 460.058 457.533 460.058 452.2C460.058 446.867 461.659 442.6 464.86 439.4C468.062 436.2 472.331 434.6 477.666 434.6C483.002 434.6 487.271 436.2 490.473 439.4C493.674 442.6 495.275 446.867 495.275 452.2C495.275 457.533 493.674 461.889 490.473 465.267C487.271 468.644 483.002 470.333 477.666 470.333Z" fill="url(#paint2_linear_3142_35740)" fill-opacity="0.15"/>
<path d="M661.649 550.333V511.667H574.942V463.4L649.911 355.667H687.262L606.957 472.2V482.333H661.649V438.333H694.999V550.333H661.649Z" fill="url(#paint3_linear_3142_35740)" fill-opacity="0.15"/>
<defs>
<filter id="filter0_f_3142_35740" x="0.349876" y="-24.6491" width="955.296" height="955.294" filterUnits="userSpaceOnUse" color-interpolation-filters="sRGB">
<feFlood flood-opacity="0" result="BackgroundImageFix"/>
<feBlend mode="normal" in="SourceGraphic" in2="BackgroundImageFix" result="shape"/>
<feGaussianBlur stdDeviation="58.8236" result="effect1_foregroundBlur_3142_35740"/>
</filter>
<filter id="filter1_f_3142_35740" x="61.5264" y="36.5274" width="832.943" height="832.941" filterUnits="userSpaceOnUse" color-interpolation-filters="sRGB">
<feFlood flood-opacity="0" result="BackgroundImageFix"/>
<feBlend mode="normal" in="SourceGraphic" in2="BackgroundImageFix" result="shape"/>
<feGaussianBlur stdDeviation="28.2353" result="effect1_foregroundBlur_3142_35740"/>
</filter>
<filter id="filter2_f_3142_35740" x="125.057" y="100.058" width="705.884" height="705.882" filterUnits="userSpaceOnUse" color-interpolation-filters="sRGB">
<feFlood flood-opacity="0" result="BackgroundImageFix"/>
<feBlend mode="normal" in="SourceGraphic" in2="BackgroundImageFix" result="shape"/>
<feGaussianBlur stdDeviation="47.0589" result="effect1_foregroundBlur_3142_35740"/>
</filter>
<filter id="filter3_f_3142_35740" x="205.057" y="180.058" width="545.883" height="545.882" filterUnits="userSpaceOnUse" color-interpolation-filters="sRGB">
<feFlood flood-opacity="0" result="BackgroundImageFix"/>
<feBlend mode="normal" in="SourceGraphic" in2="BackgroundImageFix" result="shape"/>
<feGaussianBlur stdDeviation="47.0589" result="effect1_foregroundBlur_3142_35740"/>
</filter>
<radialGradient id="paint0_radial_3142_35740" cx="0" cy="0" r="1" gradientUnits="userSpaceOnUse" gradientTransform="translate(477.998 452.999) rotate(90) scale(178.824 178.824)">
<stop stop-color="#506C80"/>
<stop offset="1" stop-color="#526D80"/>
</radialGradient>
<linearGradient id="paint1_linear_3142_35740" x1="254.999" y1="453" x2="694.999" y2="453" gradientUnits="userSpaceOnUse">
<stop stop-color="#394CF6"/>
<stop offset="1" stop-color="#74AAFC"/>
</linearGradient>
<linearGradient id="paint2_linear_3142_35740" x1="254.999" y1="453" x2="694.999" y2="453" gradientUnits="userSpaceOnUse">
<stop stop-color="#394CF6"/>
<stop offset="1" stop-color="#74AAFC"/>
</linearGradient>
<linearGradient id="paint3_linear_3142_35740" x1="254.999" y1="453" x2="694.999" y2="453" gradientUnits="userSpaceOnUse">
<stop stop-color="#394CF6"/>
<stop offset="1" stop-color="#74AAFC"/>
</linearGradient>
</defs>
</svg>
